<svg width="11" height="11" viewBox="0 0 11 11" fill="none" xmlns="http://www.w3.org/2000/svg">
<path d="M8.69297 0.397684L5.50011 3.59064C4.43588 2.52678 3.37131 1.46189 2.3069 0.397684C1.07558 -0.833614 -0.833063 1.07567 0.397233 2.30731C1.46181 3.37083 2.52672 4.43589 3.59009 5.5001C2.52624 6.56479 1.46195 7.62906 0.397233 8.69289C-0.833063 9.92384 1.07575 11.8326 2.3069 10.6025C3.37113 9.53797 4.43571 8.47325 5.49994 7.40938L8.6928 10.6025C9.92412 11.8335 11.8333 9.92402 10.6025 8.69289C9.53789 7.62834 8.47366 6.56413 7.40875 5.49976C8.47349 4.43521 9.53772 3.37066 10.6025 2.30628C11.8334 1.07567 9.92429 -0.833613 8.6928 0.398371" fill="#EC1C24"/>
</svg>
