<svg width="25" height="25" viewBox="0 0 25 25" fill="none" xmlns="http://www.w3.org/2000/svg">
<rect width="25" height="25" fill="#F5F5F5"/>
<g clip-path="url(#clip0_0_1)">
<rect width="375" height="812" transform="translate(-308 -738)" fill="#FCFCFC"/>
<g filter="url(#filter0_d_0_1)">
<path d="M-308 5C-308 -8.25483 -297.255 -19 -284 -19H43C56.2548 -19 67 -8.25483 67 5V73H-308V5Z" fill="white"/>
</g>
<circle cx="12.5" cy="12.5" r="11.5" fill="#363062"/>
<path d="M3.26855 19.136L6.07278 21.7246L2.0319 22.7464L3.26855 19.136Z" fill="#363062"/>
<path d="M12.502 0C15.8437 0 18.9842 1.2992 21.3431 3.65916C26.219 8.53494 26.219 16.4674 21.3431 21.3432C18.9528 23.7345 15.7344 25 12.4741 25C10.6968 25 8.90788 24.6243 7.23411 23.8497L7.22356 23.8454C6.73435 23.6493 6.2768 23.4659 5.94767 23.4659C5.56616 23.4682 5.05321 23.645 4.55771 23.8159L4.55617 23.8165C3.53985 24.1653 2.27515 24.5994 1.33929 23.6671C0.406446 22.7331 0.83681 21.4711 1.18343 20.4557C1.35441 19.9556 1.53005 19.4391 1.53005 19.0483C1.53005 18.7273 1.37535 18.3179 1.13806 17.7282C-1.04051 13.0234 -0.0332227 7.35321 3.66209 3.66032C6.02095 1.30036 9.16028 0 12.502 0ZM12.5032 1.74467C9.6267 1.74467 6.92472 2.86359 4.89503 4.89439C1.71499 8.07202 0.849605 12.9513 2.73972 17.0373C3.01189 17.7108 3.27476 18.3668 3.27476 19.0483C3.27476 19.727 3.04217 20.4103 2.83668 21.014L2.83509 21.0187L2.8334 21.0236C2.66358 21.5214 2.40877 22.2684 2.57339 22.433C2.73165 22.597 3.45944 22.3474 3.95815 22.1764L3.9901 22.1655L4.01199 22.158C4.60564 21.9551 5.27659 21.7258 5.94186 21.7212C6.61648 21.7212 7.25272 21.9771 7.92618 22.2481C12.0519 24.1556 16.9313 23.2879 20.1101 20.1103C24.3044 15.9137 24.3044 9.08742 20.1101 4.89323C18.0793 2.86243 15.3785 1.74467 12.5032 1.74467ZM17.094 11.8204C17.736 11.8204 18.2571 12.3403 18.2571 12.9835C18.2571 13.6267 17.736 14.1466 17.094 14.1466C16.4519 14.1466 15.9262 13.6267 15.9262 12.9835C15.9262 12.3403 16.4415 11.8204 17.0835 11.8204H17.094ZM12.4312 11.8204C13.0732 11.8204 13.5943 12.3403 13.5943 12.9835C13.5943 13.6267 13.0732 14.1466 12.4312 14.1466C11.7891 14.1466 11.2634 13.6267 11.2634 12.9835C11.2634 12.3403 11.7775 11.8204 12.4207 11.8204H12.4312ZM7.76788 11.8204C8.40994 11.8204 8.93103 12.3403 8.93103 12.9835C8.93103 13.6267 8.40994 14.1466 7.76788 14.1466C7.12582 14.1466 6.60008 13.6267 6.60008 12.9835C6.60008 12.3403 7.11536 11.8204 7.75741 11.8204H7.76788Z" fill="#363062"/>
<path d="M12.502 0C15.8437 0 18.9842 1.2992 21.3431 3.65916C26.219 8.53494 26.219 16.4674 21.3431 21.3432C18.9528 23.7345 15.7344 25 12.4741 25C10.6968 25 8.90788 24.6243 7.23411 23.8497L7.22356 23.8454C6.73435 23.6493 6.2768 23.4659 5.94767 23.4659C5.56616 23.4682 5.05321 23.645 4.55771 23.8159L4.55617 23.8165C3.53985 24.1653 2.27515 24.5994 1.33929 23.6671C0.406446 22.7331 0.83681 21.4711 1.18343 20.4557C1.35441 19.9556 1.53005 19.4391 1.53005 19.0483C1.53005 18.7273 1.37535 18.3179 1.13806 17.7282C-1.04051 13.0234 -0.0332227 7.35321 3.66209 3.66032C6.02095 1.30036 9.16028 0 12.502 0ZM12.5032 1.74467C9.6267 1.74467 6.92472 2.86359 4.89503 4.89439C1.71499 8.07202 0.849605 12.9513 2.73972 17.0373C3.01189 17.7108 3.27476 18.3668 3.27476 19.0483C3.27476 19.727 3.04217 20.4103 2.83668 21.014L2.83509 21.0187L2.8334 21.0236C2.66358 21.5214 2.40877 22.2684 2.57339 22.433C2.73165 22.597 3.45944 22.3474 3.95815 22.1764L3.9901 22.1655L4.01199 22.158C4.60564 21.9551 5.27659 21.7258 5.94186 21.7212C6.61648 21.7212 7.25272 21.9771 7.92618 22.2481C12.0519 24.1556 16.9313 23.2879 20.1101 20.1103C24.3044 15.9137 24.3044 9.08742 20.1101 4.89323C18.0793 2.86243 15.3785 1.74467 12.5032 1.74467ZM17.094 11.8204C17.736 11.8204 18.2571 12.3403 18.2571 12.9835C18.2571 13.6267 17.736 14.1466 17.094 14.1466C16.4519 14.1466 15.9262 13.6267 15.9262 12.9835C15.9262 12.3403 16.4415 11.8204 17.0835 11.8204H17.094ZM12.4312 11.8204C13.0732 11.8204 13.5943 12.3403 13.5943 12.9835C13.5943 13.6267 13.0732 14.1466 12.4312 14.1466C11.7891 14.1466 11.2634 13.6267 11.2634 12.9835C11.2634 12.3403 11.7775 11.8204 12.4207 11.8204H12.4312ZM7.76788 11.8204C8.40994 11.8204 8.93103 12.3403 8.93103 12.9835C8.93103 13.6267 8.40994 14.1466 7.76788 14.1466C7.12582 14.1466 6.60008 13.6267 6.60008 12.9835C6.60008 12.3403 7.11536 11.8204 7.75741 11.8204H7.76788Z" stroke="#363062"/>
<circle cx="8" cy="13" r="1" fill="white"/>
<circle cx="13" cy="13" r="1" fill="white"/>
<circle cx="18" cy="13" r="1" fill="white"/>
</g>
<defs>
<filter id="filter0_d_0_1" x="-364" y="-71" width="487" height="204" filterUnits="userSpaceOnUse" color-interpolation-filters="sRGB">
<feFlood flood-opacity="0" result="BackgroundImageFix"/>
<feColorMatrix in="SourceAlpha" type="matrix" values="0 0 0 0 0 0 0 0 0 0 0 0 0 0 0 0 0 0 127 0" result="hardAlpha"/>
<feOffset dy="4"/>
<feGaussianBlur stdDeviation="28"/>
<feComposite in2="hardAlpha" operator="out"/>
<feColorMatrix type="matrix" values="0 0 0 0 0.533975 0 0 0 0 0.479375 0 0 0 0 0.65 0 0 0 0.08 0"/>
<feBlend mode="normal" in2="BackgroundImageFix" result="effect1_dropShadow_0_1"/>
<feBlend mode="normal" in="SourceGraphic" in2="effect1_dropShadow_0_1" result="shape"/>
</filter>
<clipPath id="clip0_0_1">
<rect width="375" height="812" fill="white" transform="translate(-308 -738)"/>
</clipPath>
</defs>
</svg>
