<svg width="19" height="18" viewBox="0 0 19 18" fill="none" xmlns="http://www.w3.org/2000/svg">
<path fill-rule="evenodd" clip-rule="evenodd" d="M9.00412 0C11.4102 0 13.6713 0.935424 15.3697 2.6346C18.8803 6.14516 18.8803 11.8565 15.3697 15.3671C13.6487 17.0889 11.3314 18 8.98403 18C7.70438 18 6.41636 17.7295 5.21125 17.1718C4.85616 17.0294 4.52369 16.8954 4.28501 16.8954C4.01032 16.8971 3.641 17.0244 3.28424 17.1475C2.55229 17.3987 1.64113 17.7119 0.966974 17.0403C0.295327 16.3678 0.605189 15.4592 0.854754 14.7281C0.977861 14.368 1.10432 13.9962 1.10432 13.7148C1.10432 13.4837 0.992935 13.1889 0.822092 12.7643C-0.74648 9.37685 -0.0212348 5.29431 2.63939 2.63543C4.33777 0.936261 6.59809 0 9.00412 0ZM9.00496 1.25616C6.93391 1.25616 4.98848 2.06178 3.5271 3.52396C1.23747 5.81185 0.614401 9.32493 1.97528 12.2669C2.17125 12.7517 2.36052 13.2241 2.36052 13.7148C2.36052 14.2047 2.19219 14.698 2.04395 15.1334C1.92168 15.4919 1.7366 16.0328 1.85552 16.1518C1.97193 16.2724 2.51628 16.0823 2.87556 15.9592C3.30685 15.8118 3.79593 15.6426 4.28082 15.6392C4.76655 15.6392 5.22465 15.8235 5.70954 16.0186C8.68003 17.392 12.1932 16.7673 14.482 14.4794C17.5019 11.4579 17.5019 6.54294 14.482 3.52312C13.0198 2.06095 11.0752 1.25616 9.00496 1.25616ZM12.3104 8.51068C12.7726 8.51068 13.1478 8.88502 13.1478 9.34812C13.1478 9.81123 12.7726 10.1856 12.3104 10.1856C11.8481 10.1856 11.4695 9.81123 11.4695 9.34812C11.4695 8.88502 11.8405 8.51068 12.3028 8.51068H12.3104ZM8.95312 8.51068C9.4154 8.51068 9.79059 8.88502 9.79059 9.34812C9.79059 9.81123 9.4154 10.1856 8.95312 10.1856C8.49084 10.1856 8.11231 9.81123 8.11231 9.34812C8.11231 8.88502 8.48247 8.51068 8.94559 8.51068H8.95312ZM5.59556 8.51068C6.05784 8.51068 6.43302 8.88502 6.43302 9.34812C6.43302 9.81123 6.05784 10.1856 5.59556 10.1856C5.13328 10.1856 4.75474 9.81123 4.75474 9.34812C4.75474 8.88502 5.12574 8.51068 5.58802 8.51068H5.59556Z" fill="white"/>
</svg>
