<svg width="18" height="18" viewBox="0 0 18 18" fill="none" xmlns="http://www.w3.org/2000/svg">
<path d="M17.7823 0.21751C17.681 0.116765 17.5532 0.0470131 17.4137 0.0164552C17.2742 -0.0141027 17.1288 -0.0041961 16.9948 0.0450103L0.494756 6.04501C0.352458 6.09898 0.229946 6.19497 0.143495 6.32023C0.0570431 6.44548 0.0107422 6.59407 0.0107422 6.74626C0.0107422 6.89845 0.0570431 7.04704 0.143495 7.17229C0.229946 7.29755 0.352458 7.39354 0.494756 7.44751L6.93726 10.02L11.6923 5.25001L12.7498 6.30751L7.97226 11.085L10.5523 17.5275C10.6078 17.6671 10.704 17.7867 10.8284 17.8709C10.9528 17.9552 11.0995 18.0002 11.2498 18C11.4013 17.9969 11.5484 17.9479 11.6716 17.8596C11.7947 17.7712 11.8882 17.6476 11.9398 17.505L17.9398 1.00501C17.9909 0.872318 18.0032 0.727833 17.9753 0.588403C17.9474 0.448973 17.8805 0.320343 17.7823 0.21751Z" fill="#363062"/>
</svg>
