<svg width="25" height="25" viewBox="0 0 25 25" fill="none" xmlns="http://www.w3.org/2000/svg">
<path fill-rule="evenodd" clip-rule="evenodd" d="M12.502 0C15.8437 0 18.9842 1.2992 21.3431 3.65916C26.219 8.53494 26.219 16.4674 21.3431 21.3432C18.9528 23.7345 15.7344 25 12.4741 25C10.6968 25 8.90788 24.6243 7.23411 23.8497C6.74094 23.652 6.27917 23.4659 5.94767 23.4659C5.56616 23.4682 5.05321 23.645 4.55771 23.8159C3.54112 24.1649 2.27562 24.5999 1.33929 23.6671C0.406446 22.7331 0.83681 21.4711 1.18343 20.4557C1.35441 19.9556 1.53005 19.4391 1.53005 19.0483C1.53005 18.7273 1.37535 18.3179 1.13806 17.7282C-1.04051 13.0234 -0.0332227 7.35321 3.66209 3.66032C6.02095 1.30036 9.16028 0 12.502 0ZM12.5032 1.74467C9.6267 1.74467 6.92472 2.86359 4.89503 4.89439C1.71499 8.07202 0.849605 12.9513 2.73972 17.0373C3.01189 17.7108 3.27476 18.3668 3.27476 19.0483C3.27476 19.7288 3.04097 20.4138 2.83509 21.0187C2.66528 21.5165 2.40822 22.2678 2.57339 22.433C2.73506 22.6005 3.49111 22.3365 3.9901 22.1655C4.58912 21.9608 5.2684 21.7258 5.94186 21.7212C6.61648 21.7212 7.25272 21.9771 7.92618 22.2481C12.0519 24.1556 16.9313 23.2879 20.1101 20.1103C24.3044 15.9137 24.3044 9.08742 20.1101 4.89323C18.0793 2.86243 15.3785 1.74467 12.5032 1.74467ZM17.094 11.8204C17.736 11.8204 18.2571 12.3403 18.2571 12.9835C18.2571 13.6267 17.736 14.1466 17.094 14.1466C16.4519 14.1466 15.9262 13.6267 15.9262 12.9835C15.9262 12.3403 16.4415 11.8204 17.0835 11.8204H17.094ZM12.4312 11.8204C13.0732 11.8204 13.5943 12.3403 13.5943 12.9835C13.5943 13.6267 13.0732 14.1466 12.4312 14.1466C11.7891 14.1466 11.2634 13.6267 11.2634 12.9835C11.2634 12.3403 11.7775 11.8204 12.4207 11.8204H12.4312ZM7.76788 11.8204C8.40994 11.8204 8.93103 12.3403 8.93103 12.9835C8.93103 13.6267 8.40994 14.1466 7.76788 14.1466C7.12582 14.1466 6.60008 13.6267 6.60008 12.9835C6.60008 12.3403 7.11536 11.8204 7.75741 11.8204H7.76788Z" fill="#363062"/>
</svg>
