<svg width="23" height="23" viewBox="0 0 23 23" fill="none" xmlns="http://www.w3.org/2000/svg">
<path d="M22.7758 0.290284C22.695 0.201513 22.5971 0.130043 22.4879 0.080194C22.3787 0.0303451 22.2605 0.00315212 22.1405 0.000258137C22.0205 -0.00263584 21.9012 0.0188292 21.7897 0.0633565C21.6783 0.107884 21.577 0.174549 21.492 0.259322L20.8081 0.939932C20.7252 1.02287 20.6786 1.13533 20.6786 1.25259C20.6786 1.36985 20.7252 1.48231 20.8081 1.56525L21.435 2.19113C21.4761 2.23242 21.525 2.26518 21.5788 2.28754C21.6326 2.3099 21.6903 2.3214 21.7485 2.3214C21.8068 2.3214 21.8645 2.3099 21.9183 2.28754C21.9721 2.26518 22.0209 2.23242 22.062 2.19113L22.7288 1.52766C23.0661 1.19094 23.0976 0.642476 22.7758 0.290284ZM19.4253 2.32216L9.44449 12.2853C9.38397 12.3455 9.33999 12.4204 9.31677 12.5026L8.85511 13.8776C8.84405 13.9149 8.84326 13.9545 8.85284 13.9922C8.86241 14.0299 8.88199 14.0644 8.90951 14.0919C8.93703 14.1194 8.97146 14.139 9.00918 14.1486C9.0469 14.1581 9.0865 14.1574 9.12381 14.1463L10.4977 13.6846C10.5799 13.6614 10.6548 13.6174 10.715 13.5569L20.6781 3.57501C20.7703 3.48185 20.822 3.35609 20.822 3.22503C20.822 3.09398 20.7703 2.96821 20.6781 2.87505L20.128 2.32216C20.0347 2.22914 19.9084 2.17691 19.7766 2.17691C19.6449 2.17691 19.5186 2.22914 19.4253 2.32216Z" fill="#363062"/>
<path d="M18.7065 8.05346L11.9673 14.8059C11.7069 15.067 11.3867 15.2608 11.0346 15.3704L9.60262 15.8498C9.26277 15.9458 8.90348 15.9494 8.56177 15.8603C8.22006 15.7712 7.90829 15.5926 7.65859 15.3428C7.40888 15.0931 7.23027 14.7814 7.14117 14.4397C7.05206 14.0979 7.05568 13.7387 7.15165 13.3988L7.63101 11.9668C7.74034 11.6148 7.9337 11.2947 8.19441 11.0341L14.9469 4.29379C15.0088 4.23197 15.0509 4.15317 15.068 4.06738C15.0852 3.98158 15.0764 3.89264 15.043 3.8118C15.0096 3.73096 14.9529 3.66185 14.8802 3.61321C14.8075 3.56457 14.722 3.53858 14.6345 3.53854H3.09619C2.27503 3.53854 1.4875 3.86475 0.906854 4.4454C0.326205 5.02605 0 5.81358 0 6.63474V19.9041C0 20.7253 0.326205 21.5128 0.906854 22.0935C1.4875 22.6741 2.27503 23.0003 3.09619 23.0003H16.3656C17.1868 23.0003 17.9743 22.6741 18.5549 22.0935C19.1356 21.5128 19.4618 20.7253 19.4618 19.9041V8.36584C19.4617 8.27835 19.4358 8.19285 19.3871 8.12013C19.3385 8.04741 19.2694 7.99075 19.1885 7.95731C19.1077 7.92388 19.0187 7.91516 18.9329 7.93228C18.8472 7.94939 18.7684 7.99156 18.7065 8.05346Z" fill="#363062"/>
</svg>
