<svg width="25" height="26" viewBox="0 0 25 26" fill="none" xmlns="http://www.w3.org/2000/svg">
<path d="M21.9775 0.907272C21.9775 0.906708 21.977 0.90625 21.9765 0.90625C21.1955 0.906517 20.428 1.21275 19.839 1.80048L9.72249 11.8799C9.57608 12.0263 9.47697 12.2132 9.43798 12.4165L9.43654 12.424L8.73188 15.9968C8.58289 16.7021 9.20824 17.3279 9.91346 17.1789L13.4878 16.4746L13.4955 16.4731C13.6988 16.4342 13.8857 16.3351 14.0322 16.1888L24.116 6.07664C24.5383 5.65301 24.8257 5.11393 24.9421 4.5273C25.0585 3.94067 24.9986 3.33274 24.7699 2.78009C24.5412 2.22744 24.154 1.7548 23.6571 1.42171C23.1605 1.08881 22.5764 0.910181 21.9785 0.908295C21.9779 0.908293 21.9775 0.907836 21.9775 0.907272ZM21.9775 2.88508C21.9775 2.88593 21.9782 2.88662 21.979 2.88662C22.2185 2.88714 22.4518 3.0096 22.6801 3.23675C23.1356 3.69203 23.1356 4.18406 22.6801 4.64036L12.9989 14.3154C12.8602 14.454 12.6836 14.5484 12.4914 14.5868C11.7964 14.7258 11.1835 14.1128 11.3229 13.4178C11.3615 13.2258 11.4559 13.0494 11.5945 12.9109L21.2759 3.23369C21.5031 3.00653 21.7365 2.88408 21.9759 2.88356C21.9768 2.88355 21.9775 2.88424 21.9775 2.88508ZM2.53125 4.95885C1.42668 4.95885 0.53125 5.85429 0.53125 6.95885V23.375C0.53125 24.4796 1.42668 25.375 2.53125 25.375H18.9562C20.0608 25.375 20.9562 24.4796 20.9562 23.375V14.3774C20.9562 13.4676 19.8564 13.0119 19.213 13.6551C19.0214 13.8466 18.9137 14.1064 18.9137 14.3774V21.3334C18.9137 22.438 18.0183 23.3334 16.9137 23.3334H4.57375C3.46918 23.3334 2.57375 22.438 2.57375 21.3334V9.00047C2.57375 7.8959 3.46918 7.00047 4.57375 7.00047H11.5343C11.8049 7.00047 12.0645 6.89298 12.2559 6.70164C12.8992 6.05863 12.4438 4.95885 11.5343 4.95885H2.53125Z" fill="#363062"/>
</svg>
