<svg width="30" height="33" viewBox="0 0 30 33" fill="none" xmlns="http://www.w3.org/2000/svg">
<g filter="url(#filter0_d_112_90)">
<path d="M12 12.4167V20.75C12 21.0263 12.1054 21.2912 12.2929 21.4866C12.4804 21.6819 12.7348 21.7917 13 21.7917C13.2652 21.7917 13.5196 21.6819 13.7071 21.4866C13.8946 21.2912 14 21.0263 14 20.75V12.4167C14 12.1404 13.8946 11.8754 13.7071 11.6801C13.5196 11.4847 13.2652 11.375 13 11.375C12.7348 11.375 12.4804 11.4847 12.2929 11.6801C12.1054 11.8754 12 12.1404 12 12.4167ZM17 11.375C17.2652 11.375 17.5196 11.4847 17.7071 11.6801C17.8946 11.8754 18 12.1404 18 12.4167V20.75C18 21.0263 17.8946 21.2912 17.7071 21.4866C17.5196 21.6819 17.2652 21.7917 17 21.7917C16.7348 21.7917 16.4804 21.6819 16.2929 21.4866C16.1054 21.2912 16 21.0263 16 20.75V12.4167C16 12.1404 16.1054 11.8754 16.2929 11.6801C16.4804 11.4847 16.7348 11.375 17 11.375ZM19 6.16667H25C25.2652 6.16667 25.5196 6.27641 25.7071 6.47176C25.8946 6.66711 26 6.93207 26 7.20833C26 7.4846 25.8946 7.74955 25.7071 7.9449C25.5196 8.14025 25.2652 8.25 25 8.25H23.894L22.39 22.3667C22.2541 23.6407 21.672 24.8178 20.755 25.6727C19.838 26.5276 18.6506 27.0001 17.42 27H12.58C11.3494 27.0001 10.162 26.5276 9.24498 25.6727C8.32799 24.8178 7.74586 23.6407 7.61 22.3667L6.104 8.25H5C4.73478 8.25 4.48043 8.14025 4.29289 7.9449C4.10536 7.74955 4 7.4846 4 7.20833C4 6.93207 4.10536 6.66711 4.29289 6.47176C4.48043 6.27641 4.73478 6.16667 5 6.16667H11C11 5.0616 11.4214 4.00179 12.1716 3.22039C12.9217 2.43899 13.9391 2 15 2C16.0609 2 17.0783 2.43899 17.8284 3.22039C18.5786 4.00179 19 5.0616 19 6.16667ZM15 4.08333C14.4696 4.08333 13.9609 4.30283 13.5858 4.69353C13.2107 5.08423 13 5.61413 13 6.16667H17C17 5.61413 16.7893 5.08423 16.4142 4.69353C16.0391 4.30283 15.5304 4.08333 15 4.08333ZM8.118 8.25L9.598 22.1375C9.6797 22.9018 10.0291 23.6078 10.5792 24.1206C11.1294 24.6333 11.8418 24.9168 12.58 24.9167H17.42C18.1579 24.9163 18.8698 24.6326 19.4195 24.1199C19.9693 23.6072 20.3183 22.9014 20.4 22.1375L21.884 8.25H8.12H8.118Z" fill="#363062"/>
</g>
<defs>
<filter id="filter0_d_112_90" x="0" y="0" width="30" height="33" filterUnits="userSpaceOnUse" color-interpolation-filters="sRGB">
<feFlood flood-opacity="0" result="BackgroundImageFix"/>
<feColorMatrix in="SourceAlpha" type="matrix" values="0 0 0 0 0 0 0 0 0 0 0 0 0 0 0 0 0 0 127 0" result="hardAlpha"/>
<feOffset dy="2"/>
<feGaussianBlur stdDeviation="2"/>
<feComposite in2="hardAlpha" operator="out"/>
<feColorMatrix type="matrix" values="0 0 0 0 0 0 0 0 0 0 0 0 0 0 0 0 0 0 0.14 0"/>
<feBlend mode="normal" in2="BackgroundImageFix" result="effect1_dropShadow_112_90"/>
<feBlend mode="normal" in="SourceGraphic" in2="effect1_dropShadow_112_90" result="shape"/>
</filter>
</defs>
</svg>
