<svg width="24" height="24" viewBox="0 0 24 24" fill="none" xmlns="http://www.w3.org/2000/svg">
<path fill-rule="evenodd" clip-rule="evenodd" d="M11 8C11 8.55228 10.5523 9 10 9L3 9C2.44772 9 2 8.55228 2 8C2 7.44771 2.44772 7 3 7L10 7C10.5523 7 11 7.44772 11 8Z" fill="#827397"/>
<path fill-rule="evenodd" clip-rule="evenodd" d="M22 8C22 8.55228 21.5523 9 21 9L14 9C13.4477 9 13 8.55228 13 8C13 7.44771 13.4477 7 14 7L21 7C21.5523 7 22 7.44772 22 8Z" fill="#827397"/>
<path fill-rule="evenodd" clip-rule="evenodd" d="M13 16C13 16.5523 12.5523 17 12 17L3 17C2.44771 17 2 16.5523 2 16C2 15.4477 2.44771 15 3 15L12 15C12.5523 15 13 15.4477 13 16Z" fill="#827397"/>
<path fill-rule="evenodd" clip-rule="evenodd" d="M22 16C22 16.5523 21.5523 17 21 17L16 17C15.4477 17 15 16.5523 15 16C15 15.4477 15.4477 15 16 15L21 15C21.5523 15 22 15.4477 22 16Z" fill="#827397"/>
<path fill-rule="evenodd" clip-rule="evenodd" d="M10 4C10.5523 4 11 4.44772 11 5L11 11C11 11.5523 10.5523 12 10 12C9.44771 12 9 11.5523 9 11L9 5C9 4.44772 9.44772 4 10 4Z" fill="#827397"/>
<path fill-rule="evenodd" clip-rule="evenodd" d="M16 12C16.5523 12 17 12.4477 17 13L17 19C17 19.5523 16.5523 20 16 20C15.4477 20 15 19.5523 15 19L15 13C15 12.4477 15.4477 12 16 12Z" fill="#827397"/>
</svg>
