<svg width="12" height="13" viewBox="0 0 12 13" fill="none" xmlns="http://www.w3.org/2000/svg">
<path d="M11.52 3.3285H9.306C9.51 2.99251 9.63 2.59372 9.63 2.16667C9.63 0.97186 8.7015 0 7.56 0C6.939 0 6.3795 0.288889 6 0.744203C5.6205 0.288889 5.061 0 4.44 0C3.2985 0 2.37 0.97186 2.37 2.16667C2.37 2.59372 2.4885 2.99251 2.694 3.3285H0.48C0.2145 3.3285 0 3.55302 0 3.83092V6.97101C0 7.0401 0.054 7.09662 0.12 7.09662H0.72V12.4976C0.72 12.7755 0.9345 13 1.2 13H10.8C11.0655 13 11.28 12.7755 11.28 12.4976V7.09662H11.88C11.946 7.09662 12 7.0401 12 6.97101V3.83092C12 3.55302 11.7855 3.3285 11.52 3.3285ZM6.51 2.16667C6.51 1.56063 6.981 1.06763 7.56 1.06763C8.139 1.06763 8.61 1.56063 8.61 2.16667C8.61 2.77271 8.139 3.2657 7.56 3.2657H6.51V2.16667ZM4.44 1.06763C5.019 1.06763 5.49 1.56063 5.49 2.16667V3.2657H4.44C3.861 3.2657 3.39 2.77271 3.39 2.16667C3.39 1.56063 3.861 1.06763 4.44 1.06763ZM1.02 6.02899V4.39614H5.49V6.02899H1.02ZM1.74 7.09662H5.49V11.9324H1.74V7.09662ZM10.26 11.9324H6.51V7.09662H10.26V11.9324ZM10.98 6.02899H6.51V4.39614H10.98V6.02899Z" fill="#363062"/>
</svg>
