<svg width="33" height="33" viewBox="0 0 33 33" fill="none" xmlns="http://www.w3.org/2000/svg">
<path opacity="0.5" d="M16.1367 32.0168C24.9542 31.9694 32.0638 24.783 32.0164 15.9655C31.9691 7.14803 24.7826 0.0384028 15.9651 0.0857748C7.14768 0.133147 0.0380242 7.31958 0.0853961 16.1371C0.132768 24.9546 7.31923 32.0642 16.1367 32.0168ZM15.9838 3.55655C22.8854 3.51947 28.5086 9.0843 28.5457 15.9842C28.5827 22.8841 23.0196 28.5089 16.118 28.546C9.21644 28.5831 3.59326 23.0183 3.55619 16.1184C3.51912 9.21855 9.08219 3.59363 15.9838 3.55655ZM12.9631 22.7493L19.2105 22.7157L19.1724 15.618L23.077 15.5971L16.0132 9.02301L9.02037 15.6726L12.925 15.6516L12.9631 22.7493Z" fill="#827397"/>
</svg>
