<svg width="32" height="32" viewBox="0 0 32 32" fill="none" xmlns="http://www.w3.org/2000/svg">
<path fill-rule="evenodd" clip-rule="evenodd" d="M13.9721 25.3413C14.5602 25.9854 15.3151 26.3393 16.0985 26.3393H16.0996C16.8864 26.3393 17.6448 25.9854 18.234 25.3402C18.5497 24.9975 19.0878 24.9696 19.4363 25.2788C19.786 25.588 19.8144 26.1182 19.4999 26.4609C18.5826 27.4622 17.3757 28.0137 16.0996 28.0137H16.0974C14.8247 28.0126 13.6201 27.4611 12.7062 26.4598C12.3917 26.1171 12.4201 25.5869 12.7698 25.2788C13.1194 24.9685 13.6576 24.9964 13.9721 25.3413ZM16.155 4.01367C21.2015 4.01367 24.5916 7.87823 24.5916 11.4872C24.5916 13.3435 25.0718 14.1305 25.5816 14.9655C26.0857 15.7893 26.6567 16.7247 26.6567 18.4929C26.2605 23.0105 21.4638 23.3789 16.155 23.3789C10.8463 23.3789 6.04845 23.0105 5.65675 18.5644C5.65336 16.7247 6.22443 15.7893 6.72851 14.9655L6.90646 14.671C7.34462 13.9305 7.7185 13.1251 7.7185 11.4872C7.7185 7.87823 11.1086 4.01367 16.155 4.01367ZM16.155 5.68809C12.1871 5.68809 9.42148 8.74446 9.42148 11.4872C9.42148 13.8079 8.7664 14.8806 8.18739 15.8273C7.72305 16.5874 7.35634 17.188 7.35634 18.4929C7.54594 20.5982 8.95941 21.7045 16.155 21.7045C23.311 21.7045 24.7687 20.5491 24.9572 18.4204C24.9538 17.188 24.5871 16.5874 24.1227 15.8273C23.5437 14.8806 22.8886 13.8079 22.8886 11.4872C22.8886 8.74446 20.123 5.68809 16.155 5.68809Z" fill="#363062"/>
<circle cx="21.6567" cy="7.01367" r="3.5" fill="#FF5E5E" stroke="white"/>
</svg>
