<svg width="32" height="32" viewBox="0 0 32 32" fill="none" xmlns="http://www.w3.org/2000/svg">
<path d="M13.6026 25.6782L13.6028 25.6784C14.2739 26.4134 15.1581 26.8393 16.0985 26.8393H16.0996C17.0423 26.8393 17.9298 26.4144 18.6025 25.6781C18.7342 25.536 18.9607 25.5252 19.1045 25.6528L19.1051 25.6534C19.2463 25.7782 19.2559 25.9874 19.1315 26.1229L19.1312 26.1232C18.3017 27.0287 17.2256 27.5137 16.0996 27.5137H16.0978C14.9753 27.5127 13.9016 27.0278 13.0755 26.1227L13.0746 26.1217C12.9499 25.9859 12.9603 25.7773 13.1003 25.6539L13.1016 25.6528C13.2474 25.5234 13.473 25.536 13.6026 25.6782ZM25.1548 15.226L25.1551 15.2265C25.6414 16.0211 26.1521 16.8562 26.1567 18.471C26.063 19.4968 25.7257 20.2561 25.2196 20.8322C24.7051 21.4179 23.9868 21.8476 23.0857 22.1571C21.2639 22.7828 18.8193 22.8789 16.155 22.8789C13.4911 22.8789 11.0451 22.7829 9.22247 22.1654C8.32055 21.8598 7.60257 21.436 7.08914 20.8597C6.58453 20.2934 6.24915 19.5482 6.15674 18.5418C6.15799 16.8559 6.66963 16.0197 7.15305 15.2296L7.155 15.2265L7.15501 15.2265L7.15646 15.2241L7.33441 14.9295L7.33443 14.9295L7.33677 14.9256C7.81257 14.1216 8.2185 13.2292 8.2185 11.4872C8.2185 8.17404 11.3646 4.51367 16.155 4.51367C20.9455 4.51367 24.0916 8.17404 24.0916 11.4872C24.0916 12.4603 24.2178 13.1776 24.4227 13.7723C24.6243 14.3571 24.8958 14.8017 25.1472 15.2135L25.1548 15.226ZM7.76086 15.5664L7.7607 15.5666L7.75059 15.5832C7.52508 15.9523 7.29515 16.3287 7.1283 16.7837C6.9557 17.2543 6.85634 17.79 6.85634 18.4929V18.5154L6.85835 18.5378C6.91024 19.1139 7.04991 19.6697 7.38566 20.1639C7.7235 20.6611 8.22888 21.0507 8.93371 21.3487C10.3126 21.9317 12.5569 22.2045 16.155 22.2045C19.7352 22.2045 21.9815 21.9193 23.3675 21.3196C24.0754 21.0133 24.5833 20.615 24.9231 20.1112C25.2611 19.6102 25.4036 19.0479 25.4552 18.4645L25.4572 18.4418L25.4572 18.419C25.4553 17.7491 25.3539 17.2311 25.1808 16.7707C25.0139 16.3269 24.7849 15.952 24.5596 15.5833L24.5494 15.5666L24.5492 15.5664C24.2596 15.0928 23.9773 14.6286 23.7606 14.0077C23.545 13.3901 23.3886 12.5982 23.3886 11.4872C23.3886 11.3211 23.3831 11.1502 23.3515 11.0222C23.3426 10.9862 23.3264 10.9305 23.2948 10.8711C23.2668 10.8186 23.1962 10.7049 23.0508 10.6364C22.8775 10.5548 22.7076 10.5864 22.5948 10.6432C22.4998 10.691 22.4406 10.7565 22.4136 10.7892C22.3567 10.8576 22.3182 10.9342 22.2953 10.9827C22.2684 11.0396 22.2424 11.1038 22.2173 11.1703C22.1671 11.3035 22.111 11.4728 22.0499 11.6653C21.9849 11.8704 21.9124 12.1077 21.832 12.3707C21.6062 13.1098 21.3186 14.0511 20.9617 15.0462C20.4775 16.3958 19.8818 17.7959 19.1782 18.8504C18.4557 19.9331 17.7222 20.5 17 20.5C16.256 20.5 15.4175 19.9078 14.5303 18.8131C13.6675 17.7485 12.8631 16.3399 12.1675 14.9865C11.8211 14.3126 11.5049 13.6589 11.2236 13.0749C11.2025 13.031 11.1816 12.9875 11.1608 12.9443C10.907 12.417 10.6802 11.9458 10.4904 11.5842C10.3878 11.3887 10.2906 11.2145 10.2011 11.0757C10.1255 10.9584 10.0124 10.7952 9.86612 10.6954C9.79015 10.6436 9.61272 10.546 9.38715 10.6051C9.15555 10.6659 9.04845 10.8448 9.00706 10.9368C8.93062 11.1066 8.92148 11.3197 8.92148 11.4872C8.92148 12.5982 8.76505 13.3901 8.54949 14.0077C8.33282 14.6286 8.05051 15.0928 7.76086 15.5664ZM23.208 11.3929C23.208 11.393 23.2076 11.3936 23.2069 11.3948C23.2076 11.3935 23.208 11.3929 23.208 11.3929Z" fill="#363062" stroke="#363062"/>
<circle cx="21.6567" cy="7.01367" r="3.5" fill="#FF5E5E" stroke="white"/>
<rect x="8" y="11" width="16" height="11" fill="#363062"/>
<rect x="24" y="15" width="1" height="6" fill="#363062"/>
<rect x="7" y="15" width="1" height="6" fill="#363062"/>
</svg>
