<svg width="28" height="33" viewBox="0 0 28 33" fill="none" xmlns="http://www.w3.org/2000/svg">
<g filter="url(#filter0_d_112_85)">
<path d="M5 14.5C5 14.6525 5.05926 14.7988 5.16475 14.9066C5.27024 15.0144 5.41332 15.075 5.5625 15.075H15.4546L12.4767 18.1179C12.4245 18.1713 12.383 18.2347 12.3546 18.3045C12.3263 18.3742 12.3117 18.449 12.3116 18.5246C12.3115 18.6772 12.3707 18.8236 12.4762 18.9315C12.5817 19.0395 12.7248 19.1002 12.874 19.1003C13.0233 19.1004 13.1665 19.0399 13.2721 18.9321L17.2096 14.9071C17.3151 14.7993 17.3743 14.653 17.3743 14.5006C17.3743 14.3481 17.3151 14.2019 17.2096 14.0941L13.2721 10.0691C13.166 9.96431 13.0239 9.90635 12.8765 9.90766C12.729 9.90897 12.5879 9.96944 12.4836 10.0761C12.3793 10.1827 12.3202 10.3269 12.3189 10.4776C12.3176 10.6284 12.3743 10.7737 12.4767 10.8821L15.4546 13.925H5.5625C5.41332 13.925 5.27024 13.9856 5.16475 14.0934C5.05926 14.2012 5 14.3475 5 14.5ZM20.1875 3H7.8125C7.06676 3.00061 6.35174 3.30371 5.82442 3.84274C5.2971 4.38178 5.0006 5.11269 5 5.875V10.475C5 10.6275 5.05926 10.7738 5.16475 10.8816C5.27024 10.9894 5.41332 11.05 5.5625 11.05C5.71168 11.05 5.85476 10.9894 5.96025 10.8816C6.06574 10.7738 6.125 10.6275 6.125 10.475V5.875C6.125 5.4175 6.30279 4.97874 6.61926 4.65524C6.93572 4.33174 7.36495 4.15 7.8125 4.15H20.1875C20.6351 4.15 21.0643 4.33174 21.3807 4.65524C21.6972 4.97874 21.875 5.4175 21.875 5.875V23.125C21.875 23.5825 21.6972 24.0213 21.3807 24.3448C21.0643 24.6683 20.6351 24.85 20.1875 24.85H7.8125C7.36495 24.85 6.93572 24.6683 6.61926 24.3448C6.30279 24.0213 6.125 23.5825 6.125 23.125V18.525C6.125 18.3725 6.06574 18.2262 5.96025 18.1184C5.85476 18.0106 5.71168 17.95 5.5625 17.95C5.41332 17.95 5.27024 18.0106 5.16475 18.1184C5.05926 18.2262 5 18.3725 5 18.525V23.125C5.0006 23.8873 5.2971 24.6182 5.82442 25.1573C6.35174 25.6963 7.06676 25.9994 7.8125 26H20.1875C20.9332 25.9994 21.6483 25.6963 22.1756 25.1573C22.7029 24.6182 22.9994 23.8873 23 23.125V5.875C22.9994 5.11269 22.7029 4.38178 22.1756 3.84274C21.6483 3.30371 20.9332 3.00061 20.1875 3Z" fill="#363062"/>
<path d="M13.3614 19.0196L13.3615 19.0195L17.299 14.9945L17.299 14.9945C17.4276 14.863 17.4993 14.6853 17.4993 14.5006C17.4993 14.3158 17.4276 14.1381 17.299 14.0067L17.299 14.0066L13.3615 9.98164L13.3615 9.98163L13.3599 9.9801C13.2305 9.85227 13.0565 9.78106 12.8754 9.78267C12.6942 9.78428 12.5215 9.85857 12.3942 9.98864C12.2671 10.1186 12.1954 10.2939 12.1939 10.4766C12.1923 10.6593 12.261 10.8358 12.3859 10.9679L12.3859 10.968L12.3874 10.9695L15.1574 13.8H5.5625C5.37927 13.8 5.20411 13.8744 5.0754 14.006C4.94678 14.1375 4.875 14.3152 4.875 14.5C4.875 14.6848 4.94678 14.8625 5.0754 14.994C5.20411 15.1256 5.37927 15.2 5.5625 15.2H15.1574L12.3875 18.0304C12.3874 18.0304 12.3874 18.0305 12.3874 18.0305C12.3237 18.0956 12.2732 18.1727 12.2388 18.2574C12.2044 18.3422 12.1867 18.4329 12.1866 18.5245C12.1865 18.7094 12.2582 18.8872 12.3868 19.0189C12.5154 19.1506 12.6906 19.2252 12.8739 19.2253C13.0573 19.2255 13.2326 19.1511 13.3614 19.0196ZM20.1876 2.875H20.1875L7.8125 2.875L7.8124 2.875C7.03265 2.87564 6.28558 3.19258 5.73507 3.75533C5.18464 4.31798 4.87562 5.08035 4.875 5.8749V5.875V10.475C4.875 10.6598 4.94678 10.8375 5.0754 10.969C5.20411 11.1006 5.37927 11.175 5.5625 11.175C5.74573 11.175 5.92089 11.1006 6.0496 10.969C6.17822 10.8375 6.25 10.6598 6.25 10.475V5.875C6.25 5.44978 6.41527 5.04251 6.70861 4.74265C7.00186 4.44289 7.399 4.275 7.8125 4.275H20.1875C20.601 4.275 20.9981 4.44289 21.2914 4.74265C21.5847 5.04251 21.75 5.44978 21.75 5.875V23.125C21.75 23.5502 21.5847 23.9575 21.2914 24.2573C20.9981 24.5571 20.601 24.725 20.1875 24.725H7.8125C7.399 24.725 7.00186 24.5571 6.70861 24.2573C6.41527 23.9575 6.25 23.5502 6.25 23.125V18.525C6.25 18.3402 6.17822 18.1625 6.0496 18.031C5.92089 17.8994 5.74573 17.825 5.5625 17.825C5.37927 17.825 5.20411 17.8994 5.0754 18.031C4.94678 18.1625 4.875 18.3402 4.875 18.525L4.875 23.125L4.875 23.1251C4.87562 23.9197 5.18464 24.682 5.73507 25.2447C6.28558 25.8074 7.03265 26.1244 7.8124 26.125H7.8125H20.1875H20.1876C20.9674 26.1244 21.7144 25.8074 22.2649 25.2447C22.8154 24.682 23.1244 23.9197 23.125 23.1251V23.125V5.875V5.8749C23.1244 5.08035 22.8154 4.31798 22.2649 3.75533C21.7144 3.19258 20.9674 2.87564 20.1876 2.875Z" stroke="#363062" stroke-width="0.25"/>
</g>
<defs>
<filter id="filter0_d_112_85" x="0.75" y="0.75" width="26.5" height="31.5" filterUnits="userSpaceOnUse" color-interpolation-filters="sRGB">
<feFlood flood-opacity="0" result="BackgroundImageFix"/>
<feColorMatrix in="SourceAlpha" type="matrix" values="0 0 0 0 0 0 0 0 0 0 0 0 0 0 0 0 0 0 127 0" result="hardAlpha"/>
<feOffset dy="2"/>
<feGaussianBlur stdDeviation="2"/>
<feComposite in2="hardAlpha" operator="out"/>
<feColorMatrix type="matrix" values="0 0 0 0 0 0 0 0 0 0 0 0 0 0 0 0 0 0 0.14 0"/>
<feBlend mode="normal" in2="BackgroundImageFix" result="effect1_dropShadow_112_85"/>
<feBlend mode="normal" in="SourceGraphic" in2="effect1_dropShadow_112_85" result="shape"/>
</filter>
</defs>
</svg>
