<svg width="33" height="28" viewBox="0 0 33 28" fill="none" xmlns="http://www.w3.org/2000/svg">
<g filter="url(#filter0_d_137_560)">
<path d="M5 2.00004C4.73478 2.00004 4.48043 2.1054 4.29289 2.29294C4.10536 2.48047 4 2.73483 4 3.00004C4 3.26526 4.10536 3.51961 4.29289 3.70715C4.48043 3.89469 4.73478 4.00004 5 4.00004H7.22L9.844 14.5C10.067 15.39 10.864 16 11.781 16H24.251C25.154 16 25.921 15.4 26.158 14.53L28.75 5.00004H26.656L24.25 14H11.78L9.157 3.50004C9.04865 3.06927 8.79888 2.68732 8.44768 2.41536C8.09648 2.14339 7.66418 1.99715 7.22 2.00004H5ZM23 16C21.355 16 20 17.355 20 19C20 20.645 21.355 22 23 22C24.645 22 26 20.645 26 19C26 17.355 24.645 16 23 16ZM14 16C12.355 16 11 17.355 11 19C11 20.645 12.355 22 14 22C15.645 22 17 20.645 17 19C17 17.355 15.645 16 14 16ZM17.9677 2.00004C17.4333 2.00004 17 2.43331 17 2.96778V7.00004H14L18 11L22 7.00004H19V3.0323C19 2.4622 18.5378 2.00004 17.9677 2.00004ZM14 18C14.564 18 15 18.436 15 19C15 19.564 14.564 20 14 20C13.436 20 13 19.564 13 19C13 18.436 13.436 18 14 18ZM23 18C23.564 18 24 18.436 24 19C24 19.564 23.564 20 23 20C22.436 20 22 19.564 22 19C22 18.436 22.436 18 23 18Z" fill="#363062"/>
</g>
<defs>
<filter id="filter0_d_137_560" x="0" y="0" width="32.75" height="28" filterUnits="userSpaceOnUse" color-interpolation-filters="sRGB">
<feFlood flood-opacity="0" result="BackgroundImageFix"/>
<feColorMatrix in="SourceAlpha" type="matrix" values="0 0 0 0 0 0 0 0 0 0 0 0 0 0 0 0 0 0 127 0" result="hardAlpha"/>
<feOffset dy="2"/>
<feGaussianBlur stdDeviation="2"/>
<feComposite in2="hardAlpha" operator="out"/>
<feColorMatrix type="matrix" values="0 0 0 0 0 0 0 0 0 0 0 0 0 0 0 0 0 0 0.14 0"/>
<feBlend mode="normal" in2="BackgroundImageFix" result="effect1_dropShadow_137_560"/>
<feBlend mode="normal" in="SourceGraphic" in2="effect1_dropShadow_137_560" result="shape"/>
</filter>
</defs>
</svg>
