<svg width="23" height="28" viewBox="0 0 23 28" fill="none" xmlns="http://www.w3.org/2000/svg">
<g filter="url(#filter0_d_316_333)">
<path d="M6.82125 8.328L4.375 7.2L6.82125 6.072L7.9375 3.6L9.05375 6.072L11.5 7.2L9.05375 8.328L7.9375 10.8L6.82125 8.328ZM7.9375 22.8L9.05375 20.328L11.5 19.2L9.05375 18.072L7.9375 15.6L6.82125 18.072L4.375 19.2L6.82125 20.328L7.9375 22.8ZM3.62687 12.444L2 13.2L3.62687 13.956L4.375 15.6L5.12313 13.956L6.75 13.2L5.12313 12.444L4.375 10.8L3.62687 12.444ZM12.6875 12C12.6875 8.724 13.97 5.676 15.9531 3.3L12.6875 0H21V8.4L17.6513 5.016C16.06 6.984 15.0625 9.456 15.0625 12C15.0625 15.984 17.5562 19.632 21 21.384V24C16.1431 22.092 12.6875 17.22 12.6875 12Z" fill="#363062"/>
</g>
<defs>
<filter id="filter0_d_316_333" x="0" y="0" width="23" height="28" filterUnits="userSpaceOnUse" color-interpolation-filters="sRGB">
<feFlood flood-opacity="0" result="BackgroundImageFix"/>
<feColorMatrix in="SourceAlpha" type="matrix" values="0 0 0 0 0 0 0 0 0 0 0 0 0 0 0 0 0 0 127 0" result="hardAlpha"/>
<feOffset dy="2"/>
<feGaussianBlur stdDeviation="1"/>
<feComposite in2="hardAlpha" operator="out"/>
<feColorMatrix type="matrix" values="0 0 0 0 0 0 0 0 0 0 0 0 0 0 0 0 0 0 0.14 0"/>
<feBlend mode="normal" in2="BackgroundImageFix" result="effect1_dropShadow_316_333"/>
<feBlend mode="normal" in="SourceGraphic" in2="effect1_dropShadow_316_333" result="shape"/>
</filter>
</defs>
</svg>
