<svg width="23" height="23" viewBox="0 0 23 23" fill="none" xmlns="http://www.w3.org/2000/svg">
<path d="M17.4483 23.0001C16.3502 23.0001 15.2769 22.6745 14.3639 22.0644C13.4509 21.4544 12.7393 20.5874 12.3192 19.5729C11.899 18.5585 11.789 17.4422 12.0032 16.3653C12.2174 15.2883 12.7462 14.2991 13.5226 13.5227C14.299 12.7463 15.2883 12.2175 16.3652 12.0033C17.4421 11.7891 18.5584 11.899 19.5728 12.3192C20.5873 12.7394 21.4543 13.451 22.0644 14.364C22.6744 15.277 23 16.3503 23 17.4484C22.9983 18.9203 22.4129 20.3314 21.3721 21.3722C20.3313 22.413 18.9202 22.9984 17.4483 23.0001ZM17.4483 13.4828C16.664 13.4828 15.8973 13.7154 15.2452 14.1511C14.593 14.5869 14.0848 15.2062 13.7846 15.9308C13.4845 16.6554 13.4059 17.4528 13.559 18.222C13.712 18.9912 14.0896 19.6978 14.6442 20.2524C15.1988 20.807 15.9054 21.1847 16.6746 21.3377C17.4439 21.4907 18.2412 21.4122 18.9658 21.112C19.6904 20.8119 20.3097 20.3036 20.7455 19.6515C21.1812 18.9994 21.4138 18.2327 21.4138 17.4484C21.4127 16.397 20.9946 15.3889 20.2512 14.6455C19.5077 13.902 18.4997 13.4839 17.4483 13.4828ZM11.1034 20.6208C8.58016 20.618 6.16099 19.6145 4.37676 17.8302C2.59252 16.046 1.58894 13.6268 1.58621 11.1035H0C0.00335857 14.0473 1.17426 16.8696 3.25583 18.9511C5.33741 21.0327 8.15966 22.2036 11.1034 22.207V20.6208ZM7.93103 4.7587H4.02738C5.31078 3.32176 7.00058 2.30878 8.87278 1.85404C10.745 1.39929 12.7112 1.52425 14.5107 2.21236C16.3103 2.90046 17.8583 4.11921 18.9494 5.70707C20.0406 7.29492 20.6234 9.1769 20.6207 11.1035H22.2069C22.2104 8.89615 21.5548 6.73798 20.3242 4.90548C19.0936 3.07297 17.3439 1.64956 15.2993 0.817585C13.2547 -0.014393 11.0083 -0.217059 8.84782 0.235546C6.68733 0.688152 4.71115 1.77542 3.17241 3.35808V8.12772e-05H1.58621V6.34491H7.93103V4.7587Z" fill="#363062"/>
</svg>
